<svg xmlns="http://www.w3.org/2000/svg" viewBox="0 0 1200 800" width="1200" height="800" role="img" aria-hidden="true"><defs><linearGradient id="g" x1="0" y1="0" x2="0" y2="1"><stop offset="0" stop-color="#0b132b"/><stop offset="0.7" stop-color="#3a506b"/><stop offset="1" stop-color="#5bc0be"/></linearGradient><radialGradient id="s"><stop offset="0" stop-color="#5bc0be" stop-opacity=".95"/><stop offset="1" stop-color="#5bc0be" stop-opacity="0"/></radialGradient></defs><rect width="1200" height="800" fill="url(#g)"/><circle cx="864" cy="336" r="224.00000000000003" fill="url(#s)"/><rect x="-20" y="198" width="105" height="602" fill="#05030d" opacity="0.35"/><rect x="53" y="257" width="5" height="7" fill="#5bc0be" opacity="0.83"/><rect x="93" y="184" width="73" height="616" fill="#05030d" opacity="0.35"/><rect x="138" y="280" width="5" height="7" fill="#5bc0be" opacity="0.76"/><rect x="130" y="212" width="5" height="7" fill="#5bc0be" opacity="0.98"/><rect x="151" y="312" width="5" height="7" fill="#5bc0be" opacity="0.86"/><rect x="174" y="411" width="47" height="389" fill="#05030d" opacity="0.35"/><rect x="208" y="439" width="5" height="7" fill="#5bc0be" opacity="0.99"/><rect x="205" y="428" width="5" height="7" fill="#5bc0be" opacity="0.79"/><rect x="190" y="451" width="5" height="7" fill="#5bc0be" opacity="0.52"/><rect x="188" y="473" width="5" height="7" fill="#5bc0be" opacity="0.54"/><rect x="227" y="268" width="128" height="532" fill="#05030d" opacity="0.35"/><rect x="369" y="426" width="127" height="374" fill="#05030d" opacity="0.35"/><rect x="466" y="474" width="5" height="7" fill="#5bc0be" opacity="0.65"/><rect x="450" y="481" width="5" height="7" fill="#5bc0be" opacity="0.51"/><rect x="479" y="470" width="5" height="7" fill="#5bc0be" opacity="0.63"/><rect x="426" y="437" width="5" height="7" fill="#5bc0be" opacity="0.64"/><rect x="430" y="444" width="5" height="7" fill="#5bc0be" opacity="0.67"/><rect x="504" y="355" width="102" height="445" fill="#05030d" opacity="0.35"/><rect x="513" y="485" width="5" height="7" fill="#5bc0be" opacity="0.64"/><rect x="580" y="376" width="5" height="7" fill="#5bc0be" opacity="0.68"/><rect x="527" y="390" width="5" height="7" fill="#5bc0be" opacity="0.77"/><rect x="616" y="199" width="106" height="601" fill="#05030d" opacity="0.35"/><rect x="658" y="245" width="5" height="7" fill="#5bc0be" opacity="0.86"/><rect x="736" y="216" width="93" height="584" fill="#05030d" opacity="0.35"/><rect x="802" y="308" width="5" height="7" fill="#5bc0be" opacity="0.96"/><rect x="789" y="460" width="5" height="7" fill="#5bc0be" opacity="0.56"/><rect x="817" y="267" width="5" height="7" fill="#5bc0be" opacity="0.58"/><rect x="772" y="301" width="5" height="7" fill="#5bc0be" opacity="0.68"/><rect x="834" y="282" width="119" height="518" fill="#05030d" opacity="0.35"/><rect x="911" y="466" width="5" height="7" fill="#5bc0be" opacity="0.71"/><rect x="888" y="378" width="5" height="7" fill="#5bc0be" opacity="0.65"/><rect x="959" y="214" width="125" height="586" fill="#05030d" opacity="0.35"/><rect x="1040" y="471" width="5" height="7" fill="#5bc0be" opacity="0.60"/><rect x="985" y="284" width="5" height="7" fill="#5bc0be" opacity="0.53"/><rect x="1090" y="258" width="47" height="542" fill="#05030d" opacity="0.35"/><rect x="1110" y="467" width="5" height="7" fill="#5bc0be" opacity="0.71"/><rect x="1145" y="338" width="49" height="462" fill="#05030d" opacity="0.35"/><rect x="1169" y="358" width="5" height="7" fill="#5bc0be" opacity="0.93"/><rect x="-20" y="490" width="104" height="310" fill="#05030d" opacity="0.65"/><rect x="14" y="513" width="5" height="7" fill="#5bc0be" opacity="0.62"/><rect x="61" y="562" width="5" height="7" fill="#5bc0be" opacity="0.87"/><rect x="97" y="488" width="72" height="312" fill="#05030d" opacity="0.65"/><rect x="114" y="554" width="5" height="7" fill="#5bc0be" opacity="0.67"/><rect x="115" y="558" width="5" height="7" fill="#5bc0be" opacity="0.89"/><rect x="124" y="573" width="5" height="7" fill="#5bc0be" opacity="0.78"/><rect x="181" y="356" width="107" height="444" fill="#05030d" opacity="0.65"/><rect x="235" y="374" width="5" height="7" fill="#5bc0be" opacity="0.84"/><rect x="212" y="511" width="5" height="7" fill="#5bc0be" opacity="0.77"/><rect x="211" y="558" width="5" height="7" fill="#5bc0be" opacity="0.89"/><rect x="274" y="553" width="5" height="7" fill="#5bc0be" opacity="0.79"/><rect x="301" y="365" width="125" height="435" fill="#05030d" opacity="0.65"/><rect x="370" y="468" width="5" height="7" fill="#5bc0be" opacity="0.73"/><rect x="320" y="504" width="5" height="7" fill="#5bc0be" opacity="0.91"/><rect x="324" y="497" width="5" height="7" fill="#5bc0be" opacity="0.86"/><rect x="432" y="335" width="58" height="465" fill="#05030d" opacity="0.65"/><rect x="449" y="515" width="5" height="7" fill="#5bc0be" opacity="0.86"/><rect x="475" y="531" width="5" height="7" fill="#5bc0be" opacity="0.74"/><rect x="440" y="548" width="5" height="7" fill="#5bc0be" opacity="0.57"/><rect x="500" y="530" width="64" height="270" fill="#05030d" opacity="0.65"/><rect x="544" y="558" width="5" height="7" fill="#5bc0be" opacity="0.78"/><rect x="551" y="568" width="5" height="7" fill="#5bc0be" opacity="0.51"/><rect x="533" y="560" width="5" height="7" fill="#5bc0be" opacity="0.69"/><rect x="511" y="580" width="5" height="7" fill="#5bc0be" opacity="0.64"/><rect x="514" y="575" width="5" height="7" fill="#5bc0be" opacity="0.89"/><rect x="573" y="417" width="98" height="383" fill="#05030d" opacity="0.65"/><rect x="603" y="476" width="5" height="7" fill="#5bc0be" opacity="0.96"/><rect x="676" y="472" width="65" height="328" fill="#05030d" opacity="0.65"/><rect x="719" y="525" width="5" height="7" fill="#5bc0be" opacity="0.72"/><rect x="726" y="495" width="5" height="7" fill="#5bc0be" opacity="0.55"/><rect x="752" y="492" width="47" height="308" fill="#05030d" opacity="0.65"/><rect x="812" y="519" width="118" height="281" fill="#05030d" opacity="0.65"/><rect x="858" y="552" width="5" height="7" fill="#5bc0be" opacity="0.75"/><rect x="828" y="562" width="5" height="7" fill="#5bc0be" opacity="0.73"/><rect x="943" y="521" width="121" height="279" fill="#05030d" opacity="0.65"/><rect x="1034" y="560" width="5" height="7" fill="#5bc0be" opacity="0.60"/><rect x="1013" y="558" width="5" height="7" fill="#5bc0be" opacity="0.67"/><rect x="1072" y="338" width="62" height="462" fill="#05030d" opacity="0.65"/><rect x="1112" y="578" width="5" height="7" fill="#5bc0be" opacity="0.67"/><rect x="1125" y="445" width="5" height="7" fill="#5bc0be" opacity="0.94"/><rect x="1085" y="462" width="5" height="7" fill="#5bc0be" opacity="0.50"/><rect x="1142" y="367" width="97" height="433" fill="#05030d" opacity="0.65"/><rect x="1152" y="556" width="5" height="7" fill="#5bc0be" opacity="0.56"/><rect x="-20" y="569" width="113" height="231" fill="#05030d" opacity="0.95"/><rect x="-12" y="652" width="5" height="7" fill="#5bc0be" opacity="0.82"/><rect x="98" y="592" width="109" height="208" fill="#05030d" opacity="0.95"/><rect x="138" y="638" width="5" height="7" fill="#5bc0be" opacity="0.57"/><rect x="129" y="655" width="5" height="7" fill="#5bc0be" opacity="0.98"/><rect x="213" y="592" width="120" height="208" fill="#05030d" opacity="0.95"/><rect x="283" y="662" width="5" height="7" fill="#5bc0be" opacity="0.85"/><rect x="279" y="623" width="5" height="7" fill="#5bc0be" opacity="0.76"/><rect x="261" y="620" width="5" height="7" fill="#5bc0be" opacity="0.78"/><rect x="237" y="670" width="5" height="7" fill="#5bc0be" opacity="0.74"/><rect x="340" y="587" width="43" height="213" fill="#05030d" opacity="0.95"/><rect x="368" y="648" width="5" height="7" fill="#5bc0be" opacity="0.97"/><rect x="365" y="607" width="5" height="7" fill="#5bc0be" opacity="0.73"/><rect x="354" y="649" width="5" height="7" fill="#5bc0be" opacity="0.76"/><rect x="393" y="594" width="70" height="206" fill="#05030d" opacity="0.95"/><rect x="447" y="620" width="5" height="7" fill="#5bc0be" opacity="0.99"/><rect x="476" y="519" width="120" height="281" fill="#05030d" opacity="0.95"/><rect x="492" y="602" width="5" height="7" fill="#5bc0be" opacity="0.78"/><rect x="494" y="600" width="5" height="7" fill="#5bc0be" opacity="0.98"/><rect x="553" y="570" width="5" height="7" fill="#5bc0be" opacity="0.73"/><rect x="602" y="544" width="108" height="256" fill="#05030d" opacity="0.95"/><rect x="674" y="555" width="5" height="7" fill="#5bc0be" opacity="0.72"/><rect x="685" y="652" width="5" height="7" fill="#5bc0be" opacity="0.80"/><rect x="691" y="575" width="5" height="7" fill="#5bc0be" opacity="0.93"/><rect x="649" y="603" width="5" height="7" fill="#5bc0be" opacity="0.91"/><rect x="633" y="565" width="5" height="7" fill="#5bc0be" opacity="0.73"/><rect x="723" y="615" width="60" height="185" fill="#05030d" opacity="0.95"/><rect x="734" y="667" width="5" height="7" fill="#5bc0be" opacity="0.81"/><rect x="751" y="650" width="5" height="7" fill="#5bc0be" opacity="0.60"/><rect x="759" y="641" width="5" height="7" fill="#5bc0be" opacity="0.96"/><rect x="752" y="627" width="5" height="7" fill="#5bc0be" opacity="0.92"/><rect x="737" y="627" width="5" height="7" fill="#5bc0be" opacity="0.85"/><rect x="791" y="596" width="44" height="204" fill="#05030d" opacity="0.95"/><rect x="812" y="669" width="5" height="7" fill="#5bc0be" opacity="0.74"/><rect x="816" y="624" width="5" height="7" fill="#5bc0be" opacity="0.69"/><rect x="816" y="629" width="5" height="7" fill="#5bc0be" opacity="0.69"/><rect x="800" y="624" width="5" height="7" fill="#5bc0be" opacity="0.84"/><rect x="842" y="531" width="108" height="269" fill="#05030d" opacity="0.95"/><rect x="863" y="590" width="5" height="7" fill="#5bc0be" opacity="0.98"/><rect x="851" y="644" width="5" height="7" fill="#5bc0be" opacity="0.65"/><rect x="920" y="672" width="5" height="7" fill="#5bc0be" opacity="0.70"/><rect x="851" y="622" width="5" height="7" fill="#5bc0be" opacity="0.64"/><rect x="963" y="522" width="51" height="278" fill="#05030d" opacity="0.95"/><rect x="972" y="569" width="5" height="7" fill="#5bc0be" opacity="0.96"/><rect x="1002" y="656" width="5" height="7" fill="#5bc0be" opacity="0.55"/><rect x="998" y="670" width="5" height="7" fill="#5bc0be" opacity="0.71"/><rect x="983" y="622" width="5" height="7" fill="#5bc0be" opacity="0.64"/><rect x="1019" y="547" width="102" height="253" fill="#05030d" opacity="0.95"/><rect x="1054" y="671" width="5" height="7" fill="#5bc0be" opacity="0.58"/><rect x="1078" y="619" width="5" height="7" fill="#5bc0be" opacity="0.68"/><rect x="1087" y="631" width="5" height="7" fill="#5bc0be" opacity="1.00"/><rect x="1085" y="577" width="5" height="7" fill="#5bc0be" opacity="0.67"/><rect x="1107" y="596" width="5" height="7" fill="#5bc0be" opacity="0.72"/><rect x="1133" y="590" width="76" height="210" fill="#05030d" opacity="0.95"/><rect x="1176" y="611" width="5" height="7" fill="#5bc0be" opacity="0.55"/><rect x="1152" y="620" width="5" height="7" fill="#5bc0be" opacity="0.74"/><rect x="1200" y="662" width="5" height="7" fill="#5bc0be" opacity="0.63"/><rect x="1191" y="667" width="5" height="7" fill="#5bc0be" opacity="0.65"/></svg>