<svg xmlns="http://www.w3.org/2000/svg" viewBox="0 0 1200 800" width="1200" height="800" role="img" aria-hidden="true"><defs><linearGradient id="g" x1="0" y1="0" x2="0" y2="1"><stop offset="0" stop-color="#1a1a2e"/><stop offset="0.7" stop-color="#16213e"/><stop offset="1" stop-color="#e94560"/></linearGradient><radialGradient id="s"><stop offset="0" stop-color="#e94560" stop-opacity=".95"/><stop offset="1" stop-color="#e94560" stop-opacity="0"/></radialGradient></defs><rect width="1200" height="800" fill="url(#g)"/><circle cx="864" cy="336" r="224.00000000000003" fill="url(#s)"/><rect x="-20" y="274" width="109" height="526" fill="#05030d" opacity="0.35"/><rect x="26" y="306" width="5" height="7" fill="#e94560" opacity="0.87"/><rect x="77" y="353" width="5" height="7" fill="#e94560" opacity="0.93"/><rect x="71" y="451" width="5" height="7" fill="#e94560" opacity="0.52"/><rect x="0" y="434" width="5" height="7" fill="#e94560" opacity="0.71"/><rect x="93" y="362" width="56" height="438" fill="#05030d" opacity="0.35"/><rect x="140" y="485" width="5" height="7" fill="#e94560" opacity="0.83"/><rect x="119" y="480" width="5" height="7" fill="#e94560" opacity="0.85"/><rect x="132" y="453" width="5" height="7" fill="#e94560" opacity="0.99"/><rect x="161" y="312" width="80" height="488" fill="#05030d" opacity="0.35"/><rect x="218" y="465" width="5" height="7" fill="#e94560" opacity="0.54"/><rect x="191" y="427" width="5" height="7" fill="#e94560" opacity="0.83"/><rect x="220" y="483" width="5" height="7" fill="#e94560" opacity="0.53"/><rect x="186" y="432" width="5" height="7" fill="#e94560" opacity="0.73"/><rect x="232" y="355" width="5" height="7" fill="#e94560" opacity="0.91"/><rect x="250" y="308" width="79" height="492" fill="#05030d" opacity="0.35"/><rect x="294" y="352" width="5" height="7" fill="#e94560" opacity="0.83"/><rect x="308" y="324" width="5" height="7" fill="#e94560" opacity="0.68"/><rect x="258" y="452" width="5" height="7" fill="#e94560" opacity="0.89"/><rect x="261" y="435" width="5" height="7" fill="#e94560" opacity="0.90"/><rect x="303" y="384" width="5" height="7" fill="#e94560" opacity="0.51"/><rect x="341" y="193" width="92" height="607" fill="#05030d" opacity="0.35"/><rect x="368" y="377" width="5" height="7" fill="#e94560" opacity="0.61"/><rect x="398" y="290" width="5" height="7" fill="#e94560" opacity="0.70"/><rect x="370" y="443" width="5" height="7" fill="#e94560" opacity="0.96"/><rect x="415" y="232" width="5" height="7" fill="#e94560" opacity="0.65"/><rect x="436" y="255" width="67" height="545" fill="#05030d" opacity="0.35"/><rect x="445" y="310" width="5" height="7" fill="#e94560" opacity="0.71"/><rect x="444" y="278" width="5" height="7" fill="#e94560" opacity="0.83"/><rect x="512" y="383" width="81" height="417" fill="#05030d" opacity="0.35"/><rect x="559" y="430" width="5" height="7" fill="#e94560" opacity="0.73"/><rect x="532" y="413" width="5" height="7" fill="#e94560" opacity="0.58"/><rect x="545" y="429" width="5" height="7" fill="#e94560" opacity="0.91"/><rect x="534" y="482" width="5" height="7" fill="#e94560" opacity="0.73"/><rect x="601" y="423" width="40" height="377" fill="#05030d" opacity="0.35"/><rect x="620" y="436" width="5" height="7" fill="#e94560" opacity="0.81"/><rect x="623" y="453" width="5" height="7" fill="#e94560" opacity="0.55"/><rect x="613" y="447" width="5" height="7" fill="#e94560" opacity="0.55"/><rect x="622" y="449" width="5" height="7" fill="#e94560" opacity="0.93"/><rect x="647" y="184" width="63" height="616" fill="#05030d" opacity="0.35"/><rect x="685" y="206" width="5" height="7" fill="#e94560" opacity="0.87"/><rect x="715" y="203" width="49" height="597" fill="#05030d" opacity="0.35"/><rect x="741" y="407" width="5" height="7" fill="#e94560" opacity="0.70"/><rect x="752" y="338" width="5" height="7" fill="#e94560" opacity="0.52"/><rect x="741" y="240" width="5" height="7" fill="#e94560" opacity="0.91"/><rect x="772" y="325" width="40" height="475" fill="#05030d" opacity="0.35"/><rect x="783" y="371" width="5" height="7" fill="#e94560" opacity="0.71"/><rect x="785" y="397" width="5" height="7" fill="#e94560" opacity="0.95"/><rect x="820" y="412" width="116" height="388" fill="#05030d" opacity="0.35"/><rect x="832" y="454" width="5" height="7" fill="#e94560" opacity="0.84"/><rect x="847" y="442" width="5" height="7" fill="#e94560" opacity="0.69"/><rect x="879" y="432" width="5" height="7" fill="#e94560" opacity="0.53"/><rect x="836" y="448" width="5" height="7" fill="#e94560" opacity="0.74"/><rect x="948" y="288" width="83" height="512" fill="#05030d" opacity="0.35"/><rect x="975" y="377" width="5" height="7" fill="#e94560" opacity="0.84"/><rect x="993" y="426" width="5" height="7" fill="#e94560" opacity="0.66"/><rect x="1001" y="354" width="5" height="7" fill="#e94560" opacity="0.99"/><rect x="1042" y="228" width="91" height="572" fill="#05030d" opacity="0.35"/><rect x="1055" y="458" width="5" height="7" fill="#e94560" opacity="0.64"/><rect x="1143" y="381" width="79" height="419" fill="#05030d" opacity="0.35"/><rect x="1164" y="475" width="5" height="7" fill="#e94560" opacity="0.60"/><rect x="-20" y="427" width="102" height="373" fill="#05030d" opacity="0.65"/><rect x="48" y="447" width="5" height="7" fill="#e94560" opacity="0.73"/><rect x="1" y="443" width="5" height="7" fill="#e94560" opacity="0.78"/><rect x="94" y="519" width="53" height="281" fill="#05030d" opacity="0.65"/><rect x="110" y="539" width="5" height="7" fill="#e94560" opacity="0.64"/><rect x="127" y="549" width="5" height="7" fill="#e94560" opacity="0.74"/><rect x="116" y="547" width="5" height="7" fill="#e94560" opacity="0.85"/><rect x="155" y="513" width="81" height="287" fill="#05030d" opacity="0.65"/><rect x="173" y="549" width="5" height="7" fill="#e94560" opacity="0.83"/><rect x="208" y="578" width="5" height="7" fill="#e94560" opacity="0.95"/><rect x="187" y="574" width="5" height="7" fill="#e94560" opacity="0.50"/><rect x="173" y="581" width="5" height="7" fill="#e94560" opacity="0.72"/><rect x="208" y="562" width="5" height="7" fill="#e94560" opacity="0.69"/><rect x="241" y="438" width="96" height="362" fill="#05030d" opacity="0.65"/><rect x="317" y="450" width="5" height="7" fill="#e94560" opacity="0.94"/><rect x="295" y="558" width="5" height="7" fill="#e94560" opacity="0.69"/><rect x="296" y="493" width="5" height="7" fill="#e94560" opacity="0.85"/><rect x="266" y="488" width="5" height="7" fill="#e94560" opacity="0.83"/><rect x="350" y="457" width="128" height="343" fill="#05030d" opacity="0.65"/><rect x="416" y="541" width="5" height="7" fill="#e94560" opacity="0.64"/><rect x="372" y="562" width="5" height="7" fill="#e94560" opacity="0.65"/><rect x="483" y="423" width="83" height="377" fill="#05030d" opacity="0.65"/><rect x="515" y="551" width="5" height="7" fill="#e94560" opacity="0.90"/><rect x="511" y="466" width="5" height="7" fill="#e94560" opacity="0.70"/><rect x="580" y="330" width="81" height="470" fill="#05030d" opacity="0.65"/><rect x="599" y="460" width="5" height="7" fill="#e94560" opacity="0.77"/><rect x="627" y="516" width="5" height="7" fill="#e94560" opacity="0.92"/><rect x="666" y="399" width="100" height="401" fill="#05030d" opacity="0.65"/><rect x="715" y="424" width="5" height="7" fill="#e94560" opacity="0.63"/><rect x="719" y="576" width="5" height="7" fill="#e94560" opacity="0.77"/><rect x="779" y="351" width="73" height="449" fill="#05030d" opacity="0.65"/><rect x="829" y="420" width="5" height="7" fill="#e94560" opacity="0.82"/><rect x="842" y="442" width="5" height="7" fill="#e94560" opacity="0.90"/><rect x="802" y="380" width="5" height="7" fill="#e94560" opacity="0.78"/><rect x="825" y="555" width="5" height="7" fill="#e94560" opacity="0.85"/><rect x="859" y="525" width="123" height="275" fill="#05030d" opacity="0.65"/><rect x="993" y="515" width="68" height="285" fill="#05030d" opacity="0.65"/><rect x="1052" y="572" width="5" height="7" fill="#e94560" opacity="0.63"/><rect x="1050" y="538" width="5" height="7" fill="#e94560" opacity="0.52"/><rect x="1005" y="551" width="5" height="7" fill="#e94560" opacity="0.61"/><rect x="1072" y="485" width="112" height="315" fill="#05030d" opacity="0.65"/><rect x="1097" y="496" width="5" height="7" fill="#e94560" opacity="0.67"/><rect x="1197" y="504" width="79" height="296" fill="#05030d" opacity="0.65"/><rect x="-20" y="476" width="50" height="324" fill="#05030d" opacity="0.95"/><rect x="3" y="488" width="5" height="7" fill="#e94560" opacity="0.94"/><rect x="39" y="616" width="75" height="184" fill="#05030d" opacity="0.95"/><rect x="103" y="659" width="5" height="7" fill="#e94560" opacity="0.51"/><rect x="119" y="564" width="127" height="236" fill="#05030d" opacity="0.95"/><rect x="198" y="645" width="5" height="7" fill="#e94560" opacity="0.86"/><rect x="148" y="648" width="5" height="7" fill="#e94560" opacity="0.64"/><rect x="212" y="619" width="5" height="7" fill="#e94560" opacity="0.92"/><rect x="164" y="623" width="5" height="7" fill="#e94560" opacity="0.72"/><rect x="255" y="484" width="73" height="316" fill="#05030d" opacity="0.95"/><rect x="317" y="533" width="5" height="7" fill="#e94560" opacity="0.69"/><rect x="308" y="548" width="5" height="7" fill="#e94560" opacity="0.52"/><rect x="295" y="521" width="5" height="7" fill="#e94560" opacity="0.66"/><rect x="316" y="635" width="5" height="7" fill="#e94560" opacity="0.89"/><rect x="340" y="518" width="60" height="282" fill="#05030d" opacity="0.95"/><rect x="376" y="649" width="5" height="7" fill="#e94560" opacity="0.90"/><rect x="367" y="655" width="5" height="7" fill="#e94560" opacity="0.51"/><rect x="376" y="564" width="5" height="7" fill="#e94560" opacity="0.62"/><rect x="405" y="484" width="49" height="316" fill="#05030d" opacity="0.95"/><rect x="414" y="653" width="5" height="7" fill="#e94560" opacity="0.73"/><rect x="420" y="611" width="5" height="7" fill="#e94560" opacity="0.65"/><rect x="461" y="626" width="67" height="174" fill="#05030d" opacity="0.95"/><rect x="494" y="637" width="5" height="7" fill="#e94560" opacity="0.95"/><rect x="514" y="640" width="5" height="7" fill="#e94560" opacity="0.62"/><rect x="499" y="671" width="5" height="7" fill="#e94560" opacity="0.54"/><rect x="501" y="645" width="5" height="7" fill="#e94560" opacity="0.86"/><rect x="535" y="582" width="129" height="218" fill="#05030d" opacity="0.95"/><rect x="597" y="664" width="5" height="7" fill="#e94560" opacity="0.64"/><rect x="671" y="492" width="87" height="308" fill="#05030d" opacity="0.95"/><rect x="688" y="578" width="5" height="7" fill="#e94560" opacity="0.70"/><rect x="687" y="530" width="5" height="7" fill="#e94560" opacity="0.85"/><rect x="719" y="572" width="5" height="7" fill="#e94560" opacity="0.96"/><rect x="767" y="544" width="105" height="256" fill="#05030d" opacity="0.95"/><rect x="829" y="591" width="5" height="7" fill="#e94560" opacity="0.89"/><rect x="838" y="647" width="5" height="7" fill="#e94560" opacity="0.63"/><rect x="806" y="654" width="5" height="7" fill="#e94560" opacity="0.86"/><rect x="884" y="542" width="68" height="258" fill="#05030d" opacity="0.95"/><rect x="931" y="564" width="5" height="7" fill="#e94560" opacity="0.71"/><rect x="943" y="631" width="5" height="7" fill="#e94560" opacity="0.59"/><rect x="962" y="494" width="99" height="306" fill="#05030d" opacity="0.95"/><rect x="982" y="535" width="5" height="7" fill="#e94560" opacity="0.63"/><rect x="1011" y="595" width="5" height="7" fill="#e94560" opacity="0.56"/><rect x="990" y="520" width="5" height="7" fill="#e94560" opacity="0.92"/><rect x="1072" y="488" width="66" height="312" fill="#05030d" opacity="0.95"/><rect x="1096" y="569" width="5" height="7" fill="#e94560" opacity="0.91"/><rect x="1130" y="631" width="5" height="7" fill="#e94560" opacity="0.90"/><rect x="1149" y="508" width="101" height="292" fill="#05030d" opacity="0.95"/><rect x="1232" y="652" width="5" height="7" fill="#e94560" opacity="0.94"/><rect x="1163" y="614" width="5" height="7" fill="#e94560" opacity="0.98"/><rect x="1239" y="538" width="5" height="7" fill="#e94560" opacity="0.63"/><rect x="1237" y="621" width="5" height="7" fill="#e94560" opacity="0.80"/></svg>